<svg width="16" height="16" viewBox="0 0 16 16" fill="none" xmlns="http://www.w3.org/2000/svg">
<g id="heroicons-solid/arrow-up-tray">
<path id="Vector (Stroke)" fill-rule="evenodd" clip-rule="evenodd" d="M7.64645 1.64645C7.84171 1.45118 8.15829 1.45118 8.35355 1.64645L11.3536 4.64645C11.5488 4.84171 11.5488 5.15829 11.3536 5.35355C11.1583 5.54882 10.8417 5.54882 10.6464 5.35355L8.5 3.20711L8.5 11C8.5 11.2761 8.27614 11.5 8 11.5C7.72386 11.5 7.5 11.2761 7.5 11L7.5 3.20711L5.35355 5.35355C5.15829 5.54882 4.84171 5.54882 4.64645 5.35355C4.45118 5.15829 4.45118 4.84171 4.64645 4.64645L7.64645 1.64645ZM2 10.5C2.27614 10.5 2.5 10.7239 2.5 11V12.5C2.5 13.0523 2.94772 13.5 3.5 13.5H12.5C13.0523 13.5 13.5 13.0523 13.5 12.5V11C13.5 10.7239 13.7239 10.5 14 10.5C14.2761 10.5 14.5 10.7239 14.5 11V12.5C14.5 13.6046 13.6046 14.5 12.5 14.5H3.5C2.39543 14.5 1.5 13.6046 1.5 12.5V11C1.5 10.7239 1.72386 10.5 2 10.5Z" fill="#0F172A"/>
</g>
</svg>
