<svg width="16" height="16" viewBox="0 0 16 16" fill="none" xmlns="http://www.w3.org/2000/svg">
<g id="heroicons-outline/chat-bubble-bottom-center-text">
<path id="Vector" d="M5 5.5H11M5 7.5H8M1.5 8.50623C1.5 9.57362 2.24894 10.5027 3.30497 10.658C4.05731 10.7686 4.81816 10.853 5.58657 10.9103C5.82003 10.9277 6.03345 11.0502 6.16331 11.245L8 14L9.83667 11.245C9.96653 11.0502 10.18 10.9278 10.4134 10.9104C11.1818 10.8531 11.9427 10.7687 12.695 10.6581C13.751 10.5028 14.5 9.5737 14.5 8.5063V4.4937C14.5 3.42631 13.751 2.49722 12.695 2.34196C11.1627 2.11668 9.59507 2 8.00019 2C6.40517 2 4.83741 2.1167 3.30498 2.34202C2.24894 2.49729 1.5 3.42637 1.5 4.49376V8.50623Z" stroke="#0F172A" stroke-width="1.5" stroke-linecap="round" stroke-linejoin="round"/>
</g>
</svg>
