<svg width="19" height="19" viewBox="0 0 19 19" fill="none" xmlns="http://www.w3.org/2000/svg">
<path d="M18.1172 9.39244C18.1172 8.74122 18.0586 8.11508 17.9498 7.51392H9.27734V11.0663H14.233C14.0195 12.2143 13.3708 13.1869 12.3956 13.8382V16.1424H15.3715C17.1127 14.5436 18.1172 12.1892 18.1172 9.39244Z" fill="#4285F4"/>
<path d="M9.27786 18.3674C11.7641 18.3674 13.8484 17.545 15.3719 16.1424L12.396 13.8382C11.5715 14.3892 10.5167 14.7147 9.27786 14.7147C6.8795 14.7147 4.84956 13.0992 4.12543 10.9286H1.04907V13.308C2.56428 16.3094 5.67829 18.3674 9.27786 18.3674Z" fill="#34A853"/>
<path d="M4.12507 10.9286C3.94091 10.3776 3.8363 9.78898 3.8363 9.18368C3.8363 8.57839 3.94091 7.98981 4.12507 7.43879V5.05939H1.04872C0.425139 6.29918 0.0693359 7.70181 0.0693359 9.18368C0.0693359 10.6656 0.425139 12.0682 1.04872 13.308L4.12507 10.9286Z" fill="#FBBC04"/>
<path d="M9.27786 3.65262C10.6297 3.65262 11.8435 4.11594 12.7979 5.02595L15.4389 2.39189C13.8443 0.91001 11.7598 0 9.27786 0C5.67829 0 2.56428 2.05797 1.04907 5.05938L4.12543 7.43878C4.84956 5.26812 6.8795 3.65262 9.27786 3.65262Z" fill="#E94235"/>
</svg>
