<svg width="23" height="21" viewBox="0 0 23 21" fill="none" xmlns="http://www.w3.org/2000/svg">
<path d="M11.3947 0C5.22466 0 0.248779 3.97007 0.248779 8.7898C0.248779 11.9183 2.31874 14.6577 5.42369 16.2218L4.37279 20.1365C4.35297 20.195 4.34994 20.2581 4.364 20.3183C4.37806 20.3786 4.40866 20.434 4.45241 20.4779C4.51619 20.5339 4.59825 20.5649 4.68329 20.5651C4.7538 20.5596 4.82069 20.5317 4.87435 20.4858L9.39644 17.4448C10.064 17.5365 10.7368 17.5842 11.4107 17.5876C17.5729 17.5876 22.5566 13.6175 22.5566 8.7898C22.5566 3.96214 17.5568 0 11.3947 0Z" fill="#392020"/>
<path d="M4.14947 7.40022H2.93136C2.7804 7.40459 2.63128 7.36602 2.50144 7.28904C2.44381 7.25302 2.39425 7.20549 2.3559 7.14946C2.31752 7.09345 2.29119 7.03011 2.27854 6.96346C2.27467 6.92121 2.27467 6.87874 2.27854 6.8365C2.27475 6.75742 2.29014 6.67856 2.3234 6.60668C2.35667 6.53481 2.40681 6.47201 2.4696 6.42359C2.6084 6.32333 2.77594 6.27036 2.94728 6.27267H6.6175C6.76967 6.26733 6.9198 6.30895 7.04741 6.39178C7.10641 6.42622 7.15702 6.47331 7.19558 6.52962C7.23411 6.58591 7.25965 6.65004 7.27034 6.71737C7.27423 6.75696 7.27423 6.79688 7.27034 6.8365C7.27409 6.9167 7.25874 6.99665 7.22552 7.06979C7.1923 7.14295 7.14219 7.20715 7.07926 7.25725C6.94385 7.35738 6.77794 7.40791 6.60953 7.40022H5.43126V11.5769C5.43604 11.6657 5.42224 11.7547 5.3907 11.8382C5.35919 11.9214 5.31064 11.9974 5.24813 12.0611C5.1882 12.122 5.11617 12.1697 5.03663 12.2011C4.9571 12.2326 4.87186 12.2472 4.78637 12.2438C4.63686 12.248 4.4905 12.2003 4.37238 12.1087C4.25991 12.0193 4.1836 11.8926 4.15742 11.7515C4.14955 11.6936 4.14955 11.6348 4.15742 11.5769L4.14947 7.40022Z" fill="#FEE500"/>
<path d="M7.62134 6.58228C7.65637 6.45162 7.73859 6.33847 7.85223 6.26465C7.9733 6.19622 8.11127 6.16318 8.25029 6.16937H8.55283C8.70035 6.16409 8.84646 6.19984 8.97479 6.2726C9.11078 6.3638 9.20742 6.50269 9.24547 6.66166L10.8377 11.1479C10.879 11.265 10.9136 11.3842 10.9413 11.5053C10.944 11.5555 10.944 11.6058 10.9413 11.656C10.9439 11.7335 10.9297 11.8105 10.8994 11.8819C10.8692 11.9531 10.8237 12.017 10.7661 12.069C10.7103 12.126 10.6434 12.1711 10.5694 12.2011C10.4954 12.231 10.416 12.2456 10.3362 12.2436C10.2134 12.2559 10.0901 12.2264 9.98607 12.1602C9.88209 12.0939 9.8035 11.9946 9.76296 11.8785L9.42858 10.9018H7.33474L7.00035 11.8785C6.96081 11.997 6.88126 12.0983 6.77528 12.1647C6.66932 12.2314 6.54347 12.2593 6.41918 12.2436C6.28454 12.2472 6.15268 12.2053 6.04499 12.1246C5.94006 12.0413 5.86926 11.9228 5.84594 11.7911C5.84172 11.7462 5.84172 11.7009 5.84594 11.656C5.83228 11.5773 5.83228 11.4968 5.84594 11.4179C5.84594 11.3306 5.90169 11.2353 5.93352 11.1479L7.62134 6.58228ZM8.41749 7.62251L7.66115 10.0046H9.16585L8.41749 7.62251Z" fill="#FEE500"/>
<path d="M11.1237 6.83661C11.1156 6.6584 11.1786 6.48429 11.2989 6.35226C11.3601 6.29075 11.4334 6.24269 11.5143 6.21124C11.5953 6.17977 11.6819 6.16555 11.7686 6.16954C11.9177 6.16782 12.0633 6.21531 12.1827 6.30457C12.2931 6.39771 12.3667 6.52727 12.3895 6.66979C12.3975 6.7251 12.3975 6.78129 12.3895 6.83661V11.0132H14.579C14.7307 11.0112 14.88 11.0524 15.0089 11.1323C15.0668 11.1679 15.1166 11.2153 15.1551 11.2713C15.1935 11.3275 15.2197 11.391 15.2318 11.4578C15.2318 11.4578 15.2318 11.5371 15.2318 11.5769C15.2356 11.656 15.2201 11.7347 15.187 11.8065C15.1537 11.8785 15.1035 11.9414 15.0408 11.9899C14.902 12.09 14.7344 12.143 14.5631 12.1406H11.8721C11.7008 12.1517 11.5304 12.1072 11.3864 12.0136C11.2577 11.9177 11.172 11.7751 11.1476 11.6167C11.1418 11.5294 11.1418 11.4418 11.1476 11.3546L11.1237 6.83661Z" fill="#FEE500"/>
<path d="M15.3756 6.83676C15.3709 6.65909 15.4333 6.48616 15.5507 6.35241C15.6701 6.24428 15.8232 6.18041 15.9843 6.17173C16.1451 6.16307 16.3041 6.21004 16.4344 6.30473C16.5475 6.39706 16.6238 6.52655 16.6494 6.66995C16.6534 6.72547 16.6534 6.78124 16.6494 6.83676V8.78208L18.6637 6.46349C18.7413 6.3844 18.8238 6.31022 18.9104 6.24124C18.9923 6.19268 19.0862 6.16785 19.1811 6.16971C19.3204 6.16894 19.4564 6.21052 19.5712 6.28882C19.6254 6.32518 19.6716 6.37209 19.7073 6.42666C19.7428 6.48123 19.767 6.54237 19.7783 6.60646C19.7815 6.62218 19.7815 6.63842 19.7783 6.65414C19.7745 6.67248 19.7745 6.69137 19.7783 6.70968C19.7781 6.79323 19.7561 6.87533 19.7146 6.94792C19.6724 7.0248 19.6216 7.09662 19.5633 7.16223L18.2417 8.60741L19.834 11.0688V11.1483C19.9167 11.262 19.9812 11.388 20.0252 11.5215V11.5611C20.0343 11.6532 20.021 11.746 19.9863 11.8318C19.9516 11.9175 19.8967 11.9936 19.8261 12.0534C19.6932 12.1537 19.5308 12.2067 19.3644 12.2043C19.2537 12.2088 19.1439 12.1841 19.0459 12.1329C18.9398 12.0619 18.8525 11.9665 18.7911 11.855L17.3102 9.47288L16.6016 10.2114V11.5373C16.6064 11.715 16.5439 11.8878 16.4265 12.0217C16.3636 12.083 16.2889 12.1309 16.2066 12.1624C16.1245 12.1936 16.0368 12.208 15.949 12.2043C15.802 12.2075 15.6586 12.1598 15.5428 12.0694C15.4304 11.98 15.354 11.853 15.3278 11.712C15.3201 11.654 15.3201 11.5953 15.3278 11.5373L15.3756 6.83676Z" fill="#FEE500"/>
</svg>
