<svg width="24" height="24" viewBox="0 0 24 24" fill="none" xmlns="http://www.w3.org/2000/svg">
<g id="heroicons-solid/x-circle">
<path id="Subtract" fill-rule="evenodd" clip-rule="evenodd" d="M12 2.25684C6.61522 2.25684 2.25 6.62206 2.25 12.0068C2.25 17.3916 6.61522 21.7568 12 21.7568C17.3848 21.7568 21.75 17.3916 21.75 12.0068C21.75 6.62206 17.3848 2.25684 12 2.25684ZM10.2803 9.22651C9.98744 8.93361 9.51256 8.93361 9.21967 9.22651C8.92678 9.5194 8.92678 9.99427 9.21967 10.2872L10.9393 12.0068L9.21967 13.7265C8.92678 14.0194 8.92678 14.4943 9.21967 14.7872C9.51256 15.0801 9.98744 15.0801 10.2803 14.7872L12 13.0675L13.7197 14.7872C14.0126 15.0801 14.4874 15.0801 14.7803 14.7872C15.0732 14.4943 15.0732 14.0194 14.7803 13.7265L13.0607 12.0068L14.7803 10.2872C15.0732 9.99427 15.0732 9.5194 14.7803 9.22651C14.4874 8.93361 14.0126 8.93361 13.7197 9.22651L12 10.9462L10.2803 9.22651Z" fill="#0F172A"/>
</g>
</svg>
